<svg width="183" height="46" viewBox="0 0 183 46" fill="none" xmlns="http://www.w3.org/2000/svg">
<g clip-path="url(#clip0_3556_10478)">
<path d="M132.318 27.5953C130.818 27.5953 129.605 26.4091 129.605 24.9643C129.605 23.5195 130.818 22.3066 132.318 22.3066C133.819 22.3066 135.031 23.4928 135.031 24.9643C135.031 26.4359 133.819 27.5953 132.318 27.5953Z" fill="#E55425"/>
<path d="M10.28 27.4972H0V26.6589H3.15675L7.2285 6.32887H4.41487V5.49498H14.6949V6.32887H11.4695L7.4298 26.6633H10.28V27.5017V27.4972ZM24.1514 27.4972H13.3087V26.6589H16.4517L9.81337 15.9922L20.6241 6.32887H17.1974V5.49498H24.9932V6.32887H22.1796L13.2721 14.3556L21.1685 26.6633H24.1468V27.5017L24.1514 27.4972Z" fill="white"/>
<path d="M24.4443 19.1806C24.4443 17.6332 24.7508 16.0948 25.373 14.5697C25.9906 13.0401 26.901 11.5641 28.1043 10.1327C29.5088 8.43367 31.014 7.15385 32.6244 6.2932C34.2393 5.43701 35.9321 5 37.7118 5C40.1182 5 42.1038 5.83835 43.6684 7.51951C45.2285 9.19621 46.0108 11.3233 46.0108 13.8919C46.0108 15.3768 45.6997 16.8885 45.0821 18.4314C44.4645 19.9744 43.5632 21.4593 42.3828 22.8774C40.9737 24.5897 39.4503 25.8785 37.8261 26.7391C36.202 27.6042 34.491 28.0368 32.6884 28.0368C30.3003 28.0368 28.333 27.1984 26.7729 25.5217C25.2174 23.845 24.4397 21.7313 24.4397 19.1806H24.4443ZM37.2177 5.83835C35.868 5.83835 34.706 6.28428 33.7315 7.17614C32.7525 8.068 31.8878 9.47269 31.1375 11.3857C30.497 13.0847 29.9846 14.8907 29.6049 16.8038C29.2251 18.7168 29.033 20.456 29.033 22.0123C29.033 23.7737 29.3715 25.0803 30.0532 25.932C30.7349 26.7793 31.7734 27.2074 33.1779 27.2074C34.5825 27.2074 35.6988 26.757 36.6915 25.8517C37.6843 24.9509 38.5444 23.5641 39.2581 21.6912C39.8895 20.0368 40.3927 18.2441 40.7679 16.3133C41.143 14.3824 41.3306 12.6299 41.3306 11.0513C41.3306 9.27648 40.9966 7.96544 40.3287 7.11371C39.6561 6.26644 38.6222 5.83835 37.2177 5.83835Z" fill="white"/>
<path d="M53.0334 27.4972H46.3311V26.6589H49.131L53.2302 6.32887H50.4211V5.49498H58.6241L60.1796 19.9298H60.477L67.893 5.49052H75.8124V6.32441H72.7059L68.6067 26.6589H71.5164V27.4972H61.4972V26.6589H64.4069L68.2911 7.26087H67.9296L57.6313 27.4928H56.6202L54.4563 7.2252H54.1086L50.1603 26.6544H53.0334V27.4928V27.4972Z" fill="white"/>
<path d="M83.8368 27.4972H74.6914V26.6589H76.8279L80.8631 6.32441H78.0495V5.49052H87.9726C90.3837 5.49052 92.2045 5.94091 93.4443 6.83724C94.6842 7.73802 95.3018 9.06243 95.3018 10.8149C95.3018 12.0725 95.0181 13.165 94.4417 14.0881C93.8698 15.0111 93.0234 15.7514 91.898 16.2999C91.0928 16.6878 90.1824 16.9643 89.1621 17.1293C88.1419 17.2943 86.472 17.379 84.1525 17.379H82.8624L80.9912 26.6633H83.8323V27.5017L83.8368 27.4972ZM83.0957 16.447H84.7473C86.0374 16.447 86.9707 16.3712 87.5426 16.2107C88.1145 16.0546 88.5948 15.7915 88.9837 15.4125C89.5876 14.864 90.0634 14.1237 90.4065 13.1918C90.7497 12.2642 90.9189 11.252 90.9189 10.1639C90.9189 8.74582 90.5712 7.75139 89.8758 7.1806C89.1804 6.60981 87.9315 6.32441 86.1381 6.32441H85.0263L83.0957 16.4426V16.447Z" fill="white"/>
<path d="M96.0842 27.4972H89.9033V26.6589H91.7699L105.907 5H107.096L107.526 26.6589H110.569V27.4972H100.389V26.6589H103.432L103.336 20.7681H96.7384L92.8039 26.6589H96.0933V27.4972H96.0842ZM103.326 19.8852L103.125 10.9889L97.2736 19.8852H103.322H103.326Z" fill="white"/>
<path d="M113.766 27.4972H113.053L113.913 21.2096H114.988C115.281 23.1226 115.898 24.5808 116.85 25.5886C117.806 26.5964 119.046 27.1048 120.583 27.1048C122.006 27.1048 123.214 26.6589 124.207 25.7715C125.199 24.8796 125.693 23.8004 125.693 22.534C125.693 21.7715 125.469 21.0713 125.021 20.4247C124.573 19.7826 123.95 19.2609 123.154 18.864L120.3 17.4504C118.396 16.505 117.147 15.6132 116.553 14.7748C115.958 13.9365 115.66 12.8439 115.66 11.4883C115.66 9.56633 116.246 8.00557 117.422 6.80602C118.598 5.60647 120.135 5.00892 122.033 5.00892C123.013 5.00892 123.882 5.16499 124.632 5.46823C125.382 5.77592 126.055 6.25307 126.65 6.89521L128.287 5.37904H128.763L127.857 11.2965H126.984C126.75 9.58417 126.224 8.26421 125.401 7.33668C124.573 6.40914 123.52 5.94537 122.226 5.94537C120.931 5.94537 119.833 6.2932 118.973 6.98885C118.113 7.6845 117.678 8.54069 117.678 9.54849C117.678 10.1728 117.843 10.6945 118.168 11.1093C118.497 11.524 119.183 11.9833 120.235 12.4916L123.388 14.0346C124.934 14.7882 126.064 15.6845 126.782 16.7235C127.501 17.7625 127.857 19.0201 127.857 20.5006C127.857 22.7525 127.162 24.5719 125.762 25.9632C124.367 27.3501 122.518 28.0457 120.213 28.0457C119.252 28.0457 118.383 27.8763 117.605 27.5329C116.827 27.1895 116.177 26.699 115.66 26.0658L113.753 27.5061L113.766 27.4972Z" fill="white"/>
<path d="M148.033 16.7012C147.521 16.4783 147.009 16.3177 146.501 16.2152C145.993 16.1126 145.535 16.0635 145.128 16.0635C144.501 16.0635 143.943 16.1616 143.458 16.3623C142.969 16.5585 142.543 16.8261 142.177 17.1516C141.811 17.4816 141.505 17.8562 141.253 18.2754C141.002 18.699 140.796 19.1271 140.64 19.573C140.485 20.019 140.37 20.456 140.297 20.8841C140.224 21.3122 140.192 21.7046 140.192 22.0569C140.192 22.5831 140.26 23.0245 140.388 23.3813C140.521 23.738 140.709 24.019 140.942 24.2285C141.18 24.4337 141.464 24.5853 141.788 24.6745C142.113 24.7637 142.47 24.8038 142.85 24.8038C143.486 24.8038 144.149 24.7191 144.845 24.5452C145.535 24.3757 146.231 24.1349 146.922 23.8317L146.309 26.7168C145.824 26.913 145.224 27.0914 144.515 27.252C143.801 27.4125 143.047 27.4928 142.237 27.4928C141.532 27.4928 140.855 27.3946 140.201 27.2029C139.547 27.0067 138.97 26.699 138.462 26.2798C137.959 25.8562 137.557 25.3122 137.25 24.6477C136.948 23.9833 136.797 23.1717 136.797 22.2174C136.797 21.5975 136.861 20.9465 136.989 20.2687C137.117 19.5909 137.319 18.922 137.593 18.2709C137.868 17.6198 138.22 16.9955 138.655 16.398C139.085 15.8004 139.602 15.2787 140.201 14.8283C140.8 14.3779 141.496 14.0256 142.287 13.7581C143.079 13.495 143.957 13.3612 144.913 13.3612C145.453 13.3612 146.08 13.4281 146.784 13.5619C147.489 13.6957 148.097 13.8696 148.601 14.0836L148.033 16.6923V16.7012Z" fill="#E55425"/>
<path d="M156.04 13.3701C156.858 13.3701 157.595 13.4771 158.254 13.6867C158.913 13.9008 159.48 14.2174 159.951 14.6366C160.422 15.0557 160.784 15.5909 161.04 16.233C161.296 16.8751 161.424 17.6243 161.424 18.476C161.424 19.6622 161.26 20.7949 160.926 21.8829C160.596 22.971 160.102 23.9298 159.452 24.7637C158.803 25.5975 157.993 26.262 157.023 26.757C156.053 27.252 154.937 27.4972 153.665 27.4972C152.86 27.4972 152.123 27.3902 151.46 27.1806C150.797 26.9666 150.229 26.6499 149.758 26.2308C149.287 25.8071 148.925 25.2809 148.669 24.6433C148.413 24.0056 148.285 23.2564 148.285 22.3958C148.285 21.214 148.45 20.0769 148.784 18.9889C149.118 17.9008 149.607 16.942 150.257 16.1081C150.906 15.2742 151.716 14.6098 152.686 14.1193C153.656 13.6243 154.772 13.3746 156.044 13.3746L156.04 13.3701ZM155.756 16.0635C155.303 16.0635 154.882 16.1527 154.502 16.3266C154.123 16.5006 153.784 16.7458 153.478 17.0535C153.176 17.3612 152.91 17.7224 152.686 18.1282C152.462 18.534 152.274 18.971 152.123 19.4392C151.972 19.9075 151.858 20.3846 151.78 20.8751C151.702 21.3657 151.666 21.8473 151.666 22.32C151.666 23.087 151.849 23.6934 152.215 24.1394C152.581 24.5853 153.157 24.8038 153.944 24.8038C154.402 24.8038 154.818 24.7146 155.198 24.5407C155.577 24.3668 155.921 24.1215 156.223 23.8138C156.524 23.5061 156.79 23.1449 157.019 22.7391C157.247 22.3333 157.435 21.8963 157.581 21.4281C157.728 20.9599 157.842 20.4783 157.915 19.9833C157.993 19.4883 158.03 19.0022 158.03 18.534C158.03 17.7759 157.842 17.1739 157.476 16.7324C157.106 16.2865 156.529 16.068 155.751 16.068L155.756 16.0635Z" fill="#E55425"/>
<path d="M174.642 15.7157C175.232 14.9576 175.923 14.3779 176.719 13.9721C177.515 13.5708 178.361 13.3701 179.253 13.3701C179.811 13.3701 180.319 13.4459 180.777 13.5975C181.234 13.7492 181.628 13.9766 181.957 14.2709C182.291 14.5652 182.547 14.9264 182.726 15.3545C182.904 15.7826 182.995 16.2687 182.995 16.8261C182.995 17.1695 182.963 17.5485 182.895 17.9632C182.826 18.3779 182.753 18.7971 182.666 19.2118L180.973 27.1494H177.615L179.294 19.2698C179.39 18.8239 179.454 18.4716 179.486 18.1996C179.518 17.932 179.537 17.7046 179.537 17.5217C179.537 17.3255 179.509 17.1472 179.459 16.9822C179.409 16.8172 179.326 16.67 179.212 16.5451C179.098 16.4203 178.947 16.3222 178.754 16.2464C178.562 16.175 178.334 16.1349 178.054 16.1349C177.487 16.1349 176.952 16.291 176.449 16.6076C175.945 16.9197 175.511 17.3523 175.154 17.8963C174.962 18.1728 174.797 18.4894 174.655 18.8417C174.513 19.194 174.39 19.6132 174.285 20.1037L172.789 27.1538H169.431L171.11 19.2742C171.206 18.8283 171.27 18.476 171.302 18.204C171.334 17.9365 171.352 17.709 171.352 17.5262C171.352 17.33 171.325 17.1516 171.274 16.9866C171.224 16.8216 171.137 16.6745 171.027 16.5496C170.913 16.4247 170.762 16.3266 170.57 16.2508C170.378 16.1795 170.149 16.1394 169.874 16.1394C169.353 16.1394 168.854 16.2731 168.387 16.5407C167.916 16.8082 167.505 17.1784 167.143 17.6511C166.914 17.9543 166.718 18.3066 166.544 18.699C166.374 19.0914 166.233 19.5507 166.118 20.0814L164.609 27.1583H161.25L164.114 13.7135H166.974V15.408H167.029C167.257 15.1405 167.523 14.8818 167.829 14.6366C168.131 14.3913 168.461 14.1773 168.818 13.99C169.174 13.8027 169.554 13.6555 169.961 13.544C170.368 13.4326 170.794 13.379 171.229 13.379C172.075 13.379 172.789 13.5797 173.379 13.981C173.964 14.3824 174.372 14.9621 174.587 15.7246H174.646L174.642 15.7157Z" fill="#E55425"/>
<path d="M19.6863 32.9153H20.7432L19.7595 38.5563C19.6497 39.3099 19.3386 39.9075 18.8217 40.3534C18.3047 40.7993 17.6642 41.0178 16.891 41C16.1727 40.9866 15.6146 40.7726 15.2257 40.3668C14.8323 39.9565 14.6584 39.3946 14.7042 38.6812H15.7518C15.7107 39.1226 15.793 39.4749 16.0035 39.738C16.2139 40.0011 16.525 40.1349 16.9459 40.1438C17.408 40.1572 17.7969 40.019 18.1125 39.7202C18.4328 39.4259 18.6249 39.0424 18.6981 38.5697L19.6863 32.9153Z" fill="white"/>
<path d="M27.8754 37.2007H24.4396L23.9363 40.0234H27.9303L27.7747 40.8841H22.7285L24.1468 32.9197H29.1381L28.9825 33.7804H25.048L24.5951 36.3445H28.0309L27.88 37.2051L27.8754 37.2007Z" fill="white"/>
<path d="M34.2438 37.6644H32.3589L31.787 40.8796H30.7256L32.1438 32.9153H34.6006C35.4561 32.9242 36.1104 33.1382 36.5587 33.5574C37.0071 33.9766 37.1946 34.5474 37.126 35.2742C37.0848 35.7737 36.8973 36.2152 36.5679 36.5942C36.2385 36.9732 35.7947 37.2631 35.2457 37.4548L36.513 40.8127V40.8841H35.3829L34.2392 37.6689L34.2438 37.6644ZM32.5098 36.7993H34.0608C34.6006 36.8038 35.0535 36.6655 35.4241 36.3846C35.7947 36.1037 36.0097 35.7291 36.0738 35.2609C36.1287 34.8016 36.0372 34.4448 35.7947 34.1862C35.5522 33.9275 35.1816 33.7893 34.683 33.7759H33.0497L32.5098 36.7993Z" fill="white"/>
<path d="M45.3612 40.8796H44.3409L41.4221 34.699L40.3241 40.8796H39.2627L40.6809 32.9153H41.7012L44.6246 39.1271L45.7317 32.9153H46.7794L45.3612 40.8796Z" fill="white"/>
<path d="M50.0001 40.8796H48.9524L50.3706 32.9153H51.4183L50.0001 40.8796Z" fill="white"/>
<path d="M59.6717 40.8796H58.6148L59.2736 37.1962H55.2842L54.6254 40.8796H53.5686L54.9869 32.9153H56.0437L55.4306 36.34H59.4155L60.0285 32.9153H61.0899L59.6717 40.8796Z" fill="white"/>
<path d="M70.359 32.9153L71.791 39.4036L75.5425 32.9153H76.9287L75.5105 40.8796H74.4628L75.0255 37.7269L75.6935 34.5206L71.9877 40.8796H71.1779L69.7185 34.3958L69.2153 37.8294L68.6708 40.8751H67.614L69.0323 32.9108H70.3636L70.359 32.9153Z" fill="white"/>
<path d="M84.1571 37.2007H80.7213L80.2181 40.0234H84.212L84.0565 40.8841H79.0103L80.4285 32.9197H85.4198L85.2643 33.7804H81.3298L80.8769 36.3445H84.3127L84.1617 37.2051L84.1571 37.2007Z" fill="white"/>
<path d="M88.2243 40.0234H91.985L91.8294 40.8841H87.012L88.4302 32.9197H89.4916L88.2243 40.0279V40.0234Z" fill="white"/>
<path d="M95.805 40.8796H94.7573L96.1756 32.9153H97.2232L95.805 40.8796Z" fill="white"/>
<path d="M105.472 40.8796H104.415L105.074 37.1962H101.085L100.426 40.8796H99.3689L100.787 32.9153H101.844L101.231 36.34H105.216L105.829 32.9153H106.89L105.472 40.8796Z" fill="white"/>
<path d="M113.858 38.7971H110.546L109.429 40.8796H108.299L112.737 32.9153H113.661L115.276 40.8796H114.238L113.849 38.7971H113.858ZM111.012 37.9365H113.702L113.025 34.2218L111.017 37.9365H111.012Z" fill="white"/>
<path d="M124.051 33.7759H121.507L120.245 40.8841H119.197L120.46 33.7759H117.916L118.072 32.9153H124.207L124.051 33.7759Z" fill="white"/>
<path d="M129.825 40.8796L131.243 32.9153H133.366C134.029 32.9197 134.606 33.0847 135.086 33.4103C135.566 33.7358 135.914 34.1817 136.12 34.7525C136.33 35.3233 136.39 35.961 136.307 36.67L136.253 37.0713C136.088 38.2308 135.626 39.1583 134.866 39.8495C134.107 40.5407 133.151 40.8841 132.002 40.8841H129.825V40.8796ZM132.144 33.7715L131.033 40.0145H132.071C132.863 40.0189 133.535 39.7781 134.089 39.2965C134.642 38.8149 134.999 38.155 135.164 37.3166C135.296 36.6477 135.338 36.0769 135.296 35.6042C135.242 35.0379 135.049 34.5964 134.72 34.2754C134.391 33.9543 133.947 33.7893 133.393 33.7759H132.14L132.144 33.7715Z" fill="white"/>
<path d="M145.837 32.9153L144.895 38.3066C144.767 39.136 144.401 39.796 143.792 40.2821C143.188 40.7726 142.456 41.0089 141.596 40.9955C141.061 40.9866 140.594 40.8662 140.201 40.6433C139.807 40.4203 139.515 40.1037 139.327 39.6979C139.139 39.2921 139.08 38.8283 139.139 38.311L140.082 32.9153H141.12L140.182 38.32C140.118 38.8774 140.214 39.3188 140.475 39.6355C140.736 39.9565 141.125 40.1215 141.646 40.1349C142.214 40.1572 142.694 40.0056 143.088 39.6845C143.476 39.3634 143.723 38.9086 143.824 38.3244L144.767 32.9153H145.828H145.837Z" fill="white"/>
<path d="M153.798 40.8796H152.777L149.859 34.699L148.761 40.8796H147.699L149.117 32.9153H150.138L153.061 39.1271L154.168 32.9153H155.216L153.798 40.8796Z" fill="white"/>
<path d="M158.437 40.8796H157.389L158.807 32.9153H159.855L158.437 40.8796Z" fill="white"/>
<path d="M166.878 38.7971H163.565L162.449 40.8796H161.319L165.757 32.9153H166.681L168.296 40.8796H167.257L166.869 38.7971H166.878ZM164.032 37.9365H166.722L166.045 34.2218L164.037 37.9365H164.032Z" fill="white"/>
</g>
<defs>
<clipPath id="clip0_3556_10478">
<rect width="183" height="36" fill="white" transform="translate(0 5)"/>
</clipPath>
</defs>
</svg>
